<svg xmlns="http://www.w3.org/2000/svg" viewBox="0 0 1100 800">
  <defs>
    <linearGradient id="redStripe" x1="0%" y1="0%" x2="100%" y2="0%">
      <stop offset="0%" stop-color="#d5173c" stop-opacity="1"/>
      <stop offset="50%" stop-color="#bf0a30" stop-opacity="1"/>
      <stop offset="100%" stop-color="#a00020" stop-opacity="1"/>
    </linearGradient>
    <linearGradient id="whiteBackground" x1="0%" y1="0%" x2="100%" y2="100%">
      <stop offset="0%" stop-color="#ffffff" stop-opacity="1"/>
      <stop offset="50%" stop-color="#f5f5f5" stop-opacity="1"/>
      <stop offset="100%" stop-color="#ebebeb" stop-opacity="1"/>
    </linearGradient>
    <linearGradient id="blueField" x1="0%" y1="0%" x2="100%" y2="100%">
      <stop offset="0%" stop-color="#003082" stop-opacity="1"/>
      <stop offset="50%" stop-color="#002868" stop-opacity="1"/>
      <stop offset="100%" stop-color="#002050" stop-opacity="1"/>
    </linearGradient>
    <filter id="glow" x="-10%" y="-10%" width="120%" height="120%">
      <feGaussianBlur in="SourceAlpha" stdDeviation="2"/>
      <feOffset dx="0" dy="0" result="offsetblur"/>
      <feComponentTransfer>
        <feFuncA type="linear" slope="0.5"/>
      </feComponentTransfer>
      <feMerge>
        <feMergeNode/>
        <feMergeNode in="SourceGraphic"/>
      </feMerge>
    </filter>
  </defs>
  <rect width="1100" height="800" fill="url(#whiteBackground)" rx="10" ry="10"/>
  <rect width="1100" height="61.5" y="61.5" fill="url(#redStripe)"/>
  <rect width="1100" height="61.5" y="184.6" fill="url(#redStripe)"/>
  <rect width="1100" height="61.5" y="307.7" fill="url(#redStripe)"/>
  <rect width="1100" height="61.5" y="430.8" fill="url(#redStripe)"/>
  <rect width="1100" height="61.5" y="553.8" fill="url(#redStripe)"/>
  <rect width="1100" height="61.5" y="676.9" fill="url(#redStripe)"/>
  <rect width="440" height="430.8" fill="url(#blueField)"/>
  <g fill="#fff" filter="url(#glow)">
    <path d="M25,25 l14,43 h46 l-37,27 l14,43 l-37,-27 l-37,27 l14,-43 l-37,-27 h46 z"/>
    <path d="M25,140 l14,43 h46 l-37,27 l14,43 l-37,-27 l-37,27 l14,-43 l-37,-27 h46 z"/>
    <path d="M25,255 l14,43 h46 l-37,27 l14,43 l-37,-27 l-37,27 l14,-43 l-37,-27 h46 z"/>
    <path d="M25,370 l14,43 h46 l-37,27 l14,43 l-37,-27 l-37,27 l14,-43 l-37,-27 h46 z"/>
    <path d="M120,25 l14,43 h46 l-37,27 l14,43 l-37,-27 l-37,27 l14,-43 l-37,-27 h46 z"/>
    <path d="M120,140 l14,43 h46 l-37,27 l14,43 l-37,-27 l-37,27 l14,-43 l-37,-27 h46 z"/>
    <path d="M120,255 l14,43 h46 l-37,27 l14,43 l-37,-27 l-37,27 l14,-43 l-37,-27 h46 z"/>
    <path d="M215,25 l14,43 h46 l-37,27 l14,43 l-37,-27 l-37,27 l14,-43 l-37,-27 h46 z"/>
    <path d="M215,140 l14,43 h46 l-37,27 l14,43 l-37,-27 l-37,27 l14,-43 l-37,-27 h46 z"/>
    <path d="M215,255 l14,43 h46 l-37,27 l14,43 l-37,-27 l-37,27 l14,-43 l-37,-27 h46 z"/>
    <path d="M215,370 l14,43 h46 l-37,27 l14,43 l-37,-27 l-37,27 l14,-43 l-37,-27 h46 z"/>
    <path d="M310,25 l14,43 h46 l-37,27 l14,43 l-37,-27 l-37,27 l14,-43 l-37,-27 h46 z"/>
    <path d="M310,140 l14,43 h46 l-37,27 l14,43 l-37,-27 l-37,27 l14,-43 l-37,-27 h46 z"/>
    <path d="M310,255 l14,43 h46 l-37,27 l14,43 l-37,-27 l-37,27 l14,-43 l-37,-27 h46 z"/>
    <path d="M310,370 l14,43 h46 l-37,27 l14,43 l-37,-27 l-37,27 l14,-43 l-37,-27 h46 z"/>
  </g>
</svg> 